<?xml version="1.0" encoding="UTF-8"?>
<svg version="1.1" xmlns="http://www.w3.org/2000/svg" width="336" height="336">
<path d="M0 0 C110.88 0 221.76 0 336 0 C336 110.88 336 221.76 336 336 C225.12 336 114.24 336 0 336 C0 225.12 0 114.24 0 0 Z " fill="#424141" transform="translate(0,0)"/>
<path d="M0 0 C0.66 0.33 1.32 0.66 2 1 C1.11699219 1.71542969 0.23398438 2.43085937 -0.67578125 3.16796875 C-13.61889917 13.83489568 -23.33645828 25.0578433 -31 40 C-31.72316406 41.40378906 -31.72316406 41.40378906 -32.4609375 42.8359375 C-44.14893175 66.99112562 -45.23956573 96.35576072 -36.99926758 121.79467773 C-32.40868001 134.9232496 -25.67488207 146.14437123 -17 157 C-16.24783203 157.98419922 -16.24783203 157.98419922 -15.48046875 158.98828125 C-0.98338606 177.16185753 21.21080072 186.32724451 43 192 C43.95265747 192.25910156 43.95265747 192.25910156 44.92456055 192.5234375 C65.99802401 197.36232712 90.45414407 192.71543438 109.70703125 183.85546875 C110.46371094 183.57316406 111.22039062 183.29085937 112 183 C112.66 183.33 113.32 183.66 114 184 C103.2909894 191.18046563 91.7540741 195.25607558 79 197 C79 197.66 79 198.32 79 199 C63.69907646 202.02774459 49.09981779 202.07840738 34 198 C34 198.33 34 198.66 34 199 C18.17597964 198.06917527 4.76077522 188.59160591 -8 180 C-6.02 181.65 -4.04 183.3 -2 185 C-8.95004119 185 -15.75498735 177.44005229 -20.5625 172.8125 C-43.79632826 148.54329615 -55.78378514 117.17124988 -55.2109375 83.625 C-54.40430638 60.20282227 -46.34056482 32.47416538 -30 15 C-27.97265625 13.88232422 -27.97265625 13.88232422 -26 13 C-24.7625 12.1646875 -24.7625 12.1646875 -23.5 11.3125 C-21 10 -21 10 -18.6875 10.3125 C-18.130625 10.539375 -17.57375 10.76625 -17 11 C-17 11.66 -17 12.32 -17 13 C-17.66 13 -18.32 13 -19 13 C-19.38285156 13.84304687 -19.38285156 13.84304687 -19.7734375 14.703125 C-21.15692781 17.29386482 -22.79938583 19.45107845 -24.625 21.75 C-25.25664063 22.54921875 -25.88828125 23.3484375 -26.5390625 24.171875 C-27.02117187 24.77515625 -27.50328125 25.3784375 -28 26 C-27.01 26.33 -26.02 26.66 -25 27 C-24.61908203 26.15888672 -24.61908203 26.15888672 -24.23046875 25.30078125 C-18.71278247 14.98358373 -9.41876939 6.67876375 0 0 Z " fill="#494643" transform="translate(118,65)"/>
<path d="M0 0 C-3.66099514 1.30997693 -5.94248146 0.61131857 -9.625 -0.4375 C-35.8494964 -6.39013151 -63.97355407 -1.05739167 -86.75 12.8671875 C-91.84656271 16.21180678 -96.47391369 19.92301373 -101 24 C-102.16982422 25.04607422 -102.16982422 25.04607422 -103.36328125 26.11328125 C-120.8587362 42.64180259 -132.44376862 67.67679072 -133.203125 91.80078125 C-133.63462316 121.83633038 -125.44742128 148.24393068 -104.54150391 170.55664062 C-94.65176032 180.65483314 -82.97821557 187.5506899 -70 193 C-68.91074219 193.495 -67.82148438 193.99 -66.69921875 194.5 C-50.60388631 201.02651284 -29.92600564 202.80883049 -13 199 C-13.87100342 199.01047363 -14.74200684 199.02094727 -15.6394043 199.03173828 C-18.93647011 199.06625338 -22.23333816 199.09110586 -25.53051758 199.10986328 C-26.94526235 199.11979131 -28.35998734 199.13333825 -29.7746582 199.15087891 C-42.05342626 199.29907845 -53.9387817 198.61779261 -65.5625 194.3125 C-66.28083008 194.05049805 -66.99916016 193.78849609 -67.73925781 193.51855469 C-93.05491914 183.94179491 -112.82042696 163.57032125 -124.20703125 139.34375 C-134.68861356 115.32229877 -135.00066535 87.25436036 -125.61035156 62.89111328 C-115.50361982 38.42505739 -96.32970324 17.99926272 -71.94921875 7.53515625 C-47.32119037 -2.38715146 -21.29895762 -2.83523779 3.58203125 6.52734375 C9.26798808 8.97717887 14.63750964 11.90899642 20 15 C19.34 15.33 18.68 15.66 18 16 C15.38758458 14.83390454 12.85977965 13.60791145 10.3125 12.3125 C-13.07207185 0.84453847 -40.44026983 -0.36846039 -65.11108398 7.89868164 C-79.51037027 13.09178101 -91.2926657 21.16595168 -102 32 C-102.72703125 32.71671875 -103.4540625 33.4334375 -104.203125 34.171875 C-122.79917882 53.64648254 -128.79420811 80.18708091 -128.40234375 106.3515625 C-127.61371786 125.82304441 -119.06366739 146.58750271 -106 161 C-105.33613281 161.81597656 -104.67226562 162.63195312 -103.98828125 163.47265625 C-91.3738969 178.55862053 -72.85158206 188.20508622 -54 193 C-52.84951172 193.33644531 -52.84951172 193.33644531 -51.67578125 193.6796875 C-28.64675687 199.54746684 -1.70119487 193.21747771 18.48046875 181.62890625 C22.93560557 178.74860849 26.96478453 175.43365069 31 172 C32.01513672 171.20335937 32.01513672 171.20335937 33.05078125 170.390625 C50.95218633 155.89730305 58.68781602 134.60766728 64 113 C62.35 113 60.7 113 59 113 C59 108.05 59 103.1 59 98 C59.99 98 60.98 98 62 98 C62 101.96 62 105.92 62 110 C64.31 110 66.62 110 69 110 C69 110.99 69 111.98 69 113 C68.01 113 67.02 113 66 113 C65.98582031 113.66902344 65.97164062 114.33804688 65.95703125 115.02734375 C65.33625798 127.52669738 61.59336434 139.49305276 56.11328125 150.703125 C54.95658179 153.00423901 54.95658179 153.00423901 54.046875 155.50390625 C50.4152416 164.16291276 43.34511311 171.2554643 37 178 C36.44828125 178.62777344 35.8965625 179.25554687 35.328125 179.90234375 C30.17527187 185.5271166 23.67566265 189.40541242 17 193 C16.34 193 15.68 193 15 193 C15.66 191.35 16.32 189.7 17 188 C15.02 188.99 13.04 189.98 11 191 C11.99 191.33 12.98 191.66 14 192 C13.67 192.99 13.34 193.98 13 195 C10.61631039 196.16455065 8.36148808 197.11217377 5.875 198 C4.78856201 198.39082764 4.78856201 198.39082764 3.68017578 198.78955078 C-21.21422671 207.45625002 -51.01868281 206.58662747 -75.01391602 195.32080078 C-95.2028443 185.38393106 -112.08786568 170.81769849 -123 151 C-123.32291016 150.42008301 -123.64582031 149.84016602 -123.97851562 149.24267578 C-132.71632462 133.37365894 -136.40661051 117.22176229 -136.3125 99.1875 C-136.30686035 98.04748535 -136.3012207 96.9074707 -136.29541016 95.73291016 C-135.93983811 70.98720824 -126.63325996 48.30171968 -110 30 C-109.52433594 29.47519043 -109.04867187 28.95038086 -108.55859375 28.40966797 C-100.8814381 20.04775323 -92.87982532 13.57053981 -83 8 C-81.90171875 7.36320312 -80.8034375 6.72640625 -79.671875 6.0703125 C-55.03380851 -7.28008167 -26.43245163 -7.88516715 0 0 Z " fill="#F5D96C" transform="translate(214,54)"/>
<path d="M0 0 C1.34711632 4.04134896 0.20840585 5.77710132 -1.25 9.75 C-11.40670522 39.14968724 -8.53340636 69.08820246 4.84765625 96.87109375 C8.94885424 105.11276531 13.74806476 112.19145367 20 119 C20.88300781 119.97582031 21.76601562 120.95164062 22.67578125 121.95703125 C37.19035867 137.49355085 55.49386505 147.65597695 76 153 C77.07378906 153.28746094 78.14757812 153.57492187 79.25390625 153.87109375 C89.11146115 156.25838109 98.90642729 156.68793858 109 157 C105.1433492 159.56089776 101.08584426 159.34239466 96.625 159.3125 C95.43801514 159.31056641 95.43801514 159.31056641 94.22705078 159.30859375 C86.88139638 159.19052014 80.09984721 157.91764362 73 156 C73 156.33 73 156.66 73 157 C57.17597964 156.06917527 43.76077522 146.59160591 31 138 C32.98 139.65 34.96 141.3 37 143 C30.04995881 143 23.24501265 135.44005229 18.4375 130.8125 C-4.81238588 106.52652295 -16.72203754 75.21026627 -16.22265625 41.65625 C-15.83972287 30.34646914 -13.85962346 18.64818104 -10 8 C-8.64018058 11.37816773 -9.3536271 13.7687919 -10.3359375 17.17553711 C-15.85109573 36.76733093 -15.03513152 60.60858046 -9 80 C-8.67854004 81.04365723 -8.67854004 81.04365723 -8.35058594 82.10839844 C-3.8188056 96.31061541 4.25980223 115.50653482 17 124 C16.5153125 123.50113281 16.030625 123.00226563 15.53125 122.48828125 C-4.24704731 101.30268202 -14.12285085 71.34915651 -13.29296875 42.59765625 C-12.71450819 31.27496199 -10.87098442 19.67952439 -7 9 C-6.67 9.99 -6.34 10.98 -6 12 C-5.34 12 -4.68 12 -4 12 C-3.79503906 11.30132812 -3.59007813 10.60265625 -3.37890625 9.8828125 C-3.10949219 8.97273438 -2.84007813 8.06265625 -2.5625 7.125 C-2.29566406 6.22007813 -2.02882813 5.31515625 -1.75390625 4.3828125 C-1 2 -1 2 0 0 Z " fill="#958049" transform="translate(79,107)"/>
<path d="M0 0 C1.40970837 0.93980558 2.8052773 1.90334055 4.15625 2.92578125 C4.7646875 3.38339844 5.373125 3.84101562 6 4.3125 C6.55816406 4.77011719 7.11632812 5.22773437 7.69140625 5.69921875 C9.40035469 6.81106209 9.40035469 6.81106209 11.40234375 6.43359375 C14.39212958 5.24571339 16.82205184 3.43514109 19.4375 1.5859375 C21.4375 0.625 21.4375 0.625 23.13354492 0.79370117 C26.50649632 2.01070865 29.33879404 3.98404444 32.30078125 5.96484375 C32.96981979 6.40582901 33.63885834 6.84681427 34.32817078 7.30116272 C36.4723369 8.71631267 38.6111849 10.13927898 40.75 11.5625 C42.14614467 12.48554006 43.54262613 13.40807094 44.93945312 14.33007812 C48.41958926 16.62942926 51.89426814 18.93686616 55.36676025 21.2477417 C57.43642779 22.62428687 59.50785963 23.9981437 61.57958984 25.37158203 C62.90077704 26.24893174 64.2219058 27.12636947 65.54296875 28.00390625 C66.43137199 28.59231544 66.43137199 28.59231544 67.33772278 29.19261169 C69.04385199 30.32783853 70.7418914 31.4741272 72.4375 32.625 C73.09247467 33.06351288 73.74744934 33.50202576 74.42227173 33.9538269 C76.1307152 35.12576806 77.78898677 36.37015766 79.4375 37.625 C79.4375 38.285 79.4375 38.945 79.4375 39.625 C74.26083457 39.1415344 70.77413248 36.4809396 66.6015625 33.62890625 C65.84515472 33.12133286 65.08874695 32.61375946 64.30941772 32.09080505 C61.88860273 30.46390456 59.47547673 28.8259976 57.0625 27.1875 C55.47836902 26.11969398 53.89373794 25.05262947 52.30859375 23.98632812 C49.19309571 21.88931647 46.08036093 19.78830077 42.96972656 17.68408203 C36.48079441 13.29838324 29.95997647 8.96058554 23.4375 4.625 C22.32375 5.285 21.21 5.945 20.0625 6.625 C16.6875 8.625 16.6875 8.625 14.4375 8.625 C17.78547722 12.33744056 21.51431484 14.69729781 25.75 17.25 C32.03532319 21.10315754 38.21183378 25.08147579 44.31982422 29.2097168 C47.61723693 31.43335665 50.94558224 33.54944986 54.375 35.5625 C55.385625 36.243125 56.39625 36.92375 57.4375 37.625 C57.4375 38.615 57.4375 39.605 57.4375 40.625 C52.64497014 40.10983283 49.30888909 37.83577811 45.43359375 35.171875 C44.42555695 34.49328178 44.42555695 34.49328178 43.39715576 33.80097961 C41.96101256 32.83297463 40.52728894 31.86137186 39.09579468 30.88650513 C36.86727321 29.36974104 34.63176037 27.86387828 32.39379883 26.36108398 C26.92068944 22.68413729 21.45719698 18.99304388 15.99804688 15.29541016 C13.21438921 13.4147896 10.42140344 11.54908656 7.625 9.6875 C6.83343506 9.14512695 6.04187012 8.60275391 5.22631836 8.04394531 C4.50581299 7.56666992 3.78530762 7.08939453 3.04296875 6.59765625 C2.43606201 6.18781494 1.82915527 5.77797363 1.20385742 5.35571289 C-1.13106075 4.38979581 -2.18030918 4.86974395 -4.5625 5.625 C-7.01515537 7.03660803 -9.39385672 8.4821705 -11.7734375 10.0078125 C-12.47520111 10.45230743 -13.17696472 10.89680237 -13.8999939 11.35476685 C-21.71520691 16.32210282 -29.45595392 21.40383625 -37.1875 26.5 C-38.60536239 27.43245341 -40.0233309 28.36474549 -41.44140625 29.296875 C-44.02748325 30.99758335 -46.61327227 32.69872351 -49.19775391 34.40185547 C-49.76133606 34.77115173 -50.32491821 35.140448 -50.90557861 35.52093506 C-52.56086806 36.62391258 -54.18761039 37.76933738 -55.81396484 38.91455078 C-58.5625 40.625 -58.5625 40.625 -61.5625 40.625 C-60.18235448 37.22778715 -58.98491066 36.00545351 -55.68359375 34.4609375 C-47.19440508 30.45863047 -47.19440508 30.45863047 -41.66796875 23.35498047 C-40.70258862 18.08421483 -40.9966013 12.92811254 -41.5625 7.625 C-39.41673363 7.59814062 -37.27087355 7.57866912 -35.125 7.5625 C-33.93003906 7.55089844 -32.73507813 7.53929688 -31.50390625 7.52734375 C-28.5625 7.625 -28.5625 7.625 -27.5625 8.625 C-27.52157063 10.95797433 -27.52008277 13.29205225 -27.5625 15.625 C-27.08941406 15.31796143 -26.61632812 15.01092285 -26.12890625 14.69458008 C-23.94054858 13.27486704 -21.75152786 11.85617945 -19.5625 10.4375 C-18.81871094 9.95474609 -18.07492188 9.47199219 -17.30859375 8.97460938 C-15.80973612 8.0036103 -14.30899444 7.0355134 -12.80639648 6.0703125 C-11.30010468 5.10009735 -9.79964378 4.12077407 -8.30493164 3.1328125 C-7.59715576 2.67261719 -6.88937988 2.21242188 -6.16015625 1.73828125 C-5.52859619 1.32231689 -4.89703613 0.90635254 -4.24633789 0.4777832 C-2.5625 -0.375 -2.5625 -0.375 0 0 Z " fill="#F6D768" transform="translate(162.5625,106.375)"/>
<path d="M0 0 C-3.66099514 1.30997693 -5.94248146 0.61131857 -9.625 -0.4375 C-35.8494964 -6.39013151 -63.97355407 -1.05739167 -86.75 12.8671875 C-91.84656271 16.21180678 -96.47391369 19.92301373 -101 24 C-102.16982422 25.04607422 -102.16982422 25.04607422 -103.36328125 26.11328125 C-120.8587362 42.64180259 -132.44376862 67.67679072 -133.203125 91.80078125 C-133.63462316 121.83633038 -125.44742128 148.24393068 -104.54150391 170.55664062 C-94.65176032 180.65483314 -82.97821557 187.5506899 -70 193 C-68.91074219 193.495 -67.82148438 193.99 -66.69921875 194.5 C-49.09851215 201.63692855 -28.56732174 201.76152427 -10 199 C-10.625 200.9375 -10.625 200.9375 -12 203 C-37.6183154 209.49710086 -66.34595111 200.93061812 -88.33984375 188.04296875 C-102.76982965 178.71431285 -114.72699649 166.02473157 -123 151 C-123.32291016 150.42008301 -123.64582031 149.84016602 -123.97851562 149.24267578 C-132.71632462 133.37365894 -136.40661051 117.22176229 -136.3125 99.1875 C-136.30686035 98.04748535 -136.3012207 96.9074707 -136.29541016 95.73291016 C-135.93983811 70.98720824 -126.63325996 48.30171968 -110 30 C-109.52433594 29.47519043 -109.04867187 28.95038086 -108.55859375 28.40966797 C-100.8814381 20.04775323 -92.87982532 13.57053981 -83 8 C-81.90171875 7.36320312 -80.8034375 6.72640625 -79.671875 6.0703125 C-55.03380851 -7.28008167 -26.43245163 -7.88516715 0 0 Z " fill="#F4D567" transform="translate(214,54)"/>
<path d="M0 0 C0.66 0.33 1.32 0.66 2 1 C1.11699219 1.71542969 0.23398438 2.43085937 -0.67578125 3.16796875 C-13.61889917 13.83489568 -23.33645828 25.0578433 -31 40 C-31.72316406 41.40378906 -31.72316406 41.40378906 -32.4609375 42.8359375 C-44.14893175 66.99112562 -45.23956573 96.35576072 -36.99926758 121.79467773 C-32.40868001 134.9232496 -25.67488207 146.14437123 -17 157 C-16.24783203 157.98419922 -16.24783203 157.98419922 -15.48046875 158.98828125 C-0.98338606 177.16185753 21.21080072 186.32724451 43 192 C43.95265747 192.25910156 43.95265747 192.25910156 44.92456055 192.5234375 C65.99802401 197.36232712 90.45414407 192.71543438 109.70703125 183.85546875 C110.46371094 183.57316406 111.22039062 183.29085937 112 183 C112.66 183.33 113.32 183.66 114 184 C93.56870453 197.69932484 67.89360908 200.17183002 43.96875 196.125 C33.29161554 193.93200827 23.56292363 190.17065057 14 185 C12.93265625 184.43152344 11.8653125 183.86304688 10.765625 183.27734375 C-14.08113555 169.43504948 -32.68318681 146.1165974 -41.00390625 118.9375 C-48.91079234 89.16325075 -45.04475043 59.79634907 -30.09130859 32.85302734 C-27.16870776 27.89049036 -23.67546442 23.41938347 -20 19 C-19.27941406 18.12730469 -18.55882813 17.25460938 -17.81640625 16.35546875 C-12.46178188 10.14181374 -6.47809083 5.01295253 0 0 Z " fill="#F4D466" transform="translate(118,65)"/>
<path d="M0 0 C-0.66 0.33 -1.32 0.66 -2 1 C-4.61241542 -0.16609546 -7.14022035 -1.39208855 -9.6875 -2.6875 C-33.07207185 -14.15546153 -60.44026983 -15.36846039 -85.11108398 -7.10131836 C-99.51037027 -1.90821899 -111.2926657 6.16595168 -122 17 C-123.09054688 18.07507813 -123.09054688 18.07507813 -124.203125 19.171875 C-142.99424556 38.85076504 -148.53151412 65.19916465 -148.30078125 91.55078125 C-148.06577942 99.70353701 -146.39235021 107.23554196 -144 115 C-144.66 115 -145.32 115 -146 115 C-146.495 115.99 -146.495 115.99 -147 117 C-147.64881448 114.45906145 -148.29412899 111.91731727 -148.9375 109.375 C-149.11990234 108.66214844 -149.30230469 107.94929688 -149.49023438 107.21484375 C-155.75514333 82.38302279 -151.6853746 56.08689003 -138.625 34.125 C-122.68886957 8.30966942 -100.12700418 -6.89442035 -71 -14 C-45.95959287 -18.57385471 -21.73693037 -12.52942664 0 0 Z " fill="#F3CE5C" transform="translate(234,69)"/>
<path d="M0 0 C1.11375 0.3403125 1.11375 0.3403125 2.25 0.6875 C2.25 1.3475 2.25 2.0075 2.25 2.6875 C1.59 2.6875 0.93 2.6875 0.25 2.6875 C-0.13285156 3.53054687 -0.13285156 3.53054687 -0.5234375 4.390625 C-1.90692781 6.98136482 -3.54938583 9.13857845 -5.375 11.4375 C-6.00664063 12.23671875 -6.63828125 13.0359375 -7.2890625 13.859375 C-7.77117187 14.46265625 -8.25328125 15.0659375 -8.75 15.6875 C-9.08 14.6975 -9.41 13.7075 -9.75 12.6875 C-13.81532334 17.78270525 -17.00339075 22.77172624 -19.75 28.6875 C-19.09 28.6875 -18.43 28.6875 -17.75 28.6875 C-17.42 27.6975 -17.09 26.7075 -16.75 25.6875 C-16.42 26.3475 -16.09 27.0075 -15.75 27.6875 C-16.6875 29.8125 -16.6875 29.8125 -17.75 31.6875 C-18.41 31.6875 -19.07 31.6875 -19.75 31.6875 C-19.95496094 32.38617188 -20.15992187 33.08484375 -20.37109375 33.8046875 C-20.64050781 34.71476562 -20.90992187 35.62484375 -21.1875 36.5625 C-21.45433594 37.46742187 -21.72117187 38.37234375 -21.99609375 39.3046875 C-22.75 41.6875 -22.75 41.6875 -23.75 43.6875 C-24.74 43.6875 -25.73 43.6875 -26.75 43.6875 C-30.14140205 56.54227423 -30.14140205 56.54227423 -31.75 69.6875 C-31.8015625 70.9765625 -31.853125 72.265625 -31.90625 73.59375 C-32.68093413 102.6123932 -23.46743155 130.36188888 -4.75 152.6875 C-3.7676171 153.70481207 -2.77546504 154.71363068 -1.75 155.6875 C-2.08 156.3475 -2.41 157.0075 -2.75 157.6875 C-9.627757 150.63461492 -14.93558649 143.27271182 -19.75 134.6875 C-20.37003906 133.5840625 -20.99007812 132.480625 -21.62890625 131.34375 C-36.3174585 103.67978118 -37.89263872 69.41096099 -29.62744141 39.484375 C-26.21486189 28.60665909 -19.01147517 9.45141634 -8.609375 3.453125 C-7.99578125 3.20046875 -7.3821875 2.9478125 -6.75 2.6875 C-6.110625 2.130625 -5.47125 1.57375 -4.8125 1 C-2.75 -0.3125 -2.75 -0.3125 0 0 Z " fill="#7A6844" transform="translate(98.75,75.3125)"/>
<path d="M0 0 C0.66 0.33 1.32 0.66 2 1 C1.72285156 1.99 1.44570312 2.98 1.16015625 4 C0.79398093 5.33325374 0.42811196 6.66659166 0.0625 8 C-0.11990234 8.64839844 -0.30230469 9.29679688 -0.49023438 9.96484375 C-7.22214416 34.68931241 -2.43537962 61.67498472 10.06640625 83.75 C23.62680306 106.45006122 45.84955811 123.36024247 71.375 130.3125 C81.43048298 132.21957436 91.3757902 132.11841876 101.5625 132.0625 C103.15950381 132.05747543 104.75650914 132.05291421 106.35351562 132.04882812 C110.23571533 132.03789728 114.11784051 132.02068533 118 132 C107.40110717 139.06592855 86.92250516 135.90990334 75.07299805 133.56518555 C65.04606699 131.28524925 56.01048678 127.92588036 47 123 C46.11570313 122.53980469 45.23140625 122.07960938 44.3203125 121.60546875 C21.63698854 109.03180515 5.71606983 86.8067259 -2.25 62.5 C-7.79862274 43.05670116 -7.99358768 22.3588507 -2 3 C-1.34 2.01 -0.68 1.02 0 0 Z " fill="#464443" transform="translate(86,120)"/>
<path d="M0 0 C0.33 0 0.66 0 1 0 C1.15855469 1.1859375 1.31710938 2.371875 1.48046875 3.59375 C5.93858969 35.23818339 19.05260718 63.32995067 44.92578125 83.078125 C57.17606072 92.00429076 70.31238855 98.17231944 85 102 C86.61068359 102.43119141 86.61068359 102.43119141 88.25390625 102.87109375 C98.11146115 105.25838109 107.90642729 105.68793858 118 106 C110.60411692 110.73948063 98.43661368 108.61284229 90.296875 106.9375 C67.84621331 101.7008273 49.68432727 91.9338212 33 76 C32.33742187 75.4121875 31.67484375 74.824375 30.9921875 74.21875 C15.36158676 59.79050316 5.34844654 38.55158662 1 18 C0.80535156 17.17886719 0.61070313 16.35773438 0.41015625 15.51171875 C-0.10224182 12.37389058 -0.09459674 9.36507707 -0.0625 6.1875 C-0.05347656 5.02605469 -0.04445313 3.86460937 -0.03515625 2.66796875 C-0.02355469 1.78753906 -0.01195313 0.90710938 0 0 Z " fill="#F3CF5D" transform="translate(70,158)"/>
<path d="M0 0 C-3.66099514 1.30997693 -5.94248146 0.61131857 -9.625 -0.4375 C-35.8494964 -6.39013151 -63.97355407 -1.05739167 -86.75 12.8671875 C-91.84656271 16.21180678 -96.47391369 19.92301373 -101 24 C-102.16982422 25.04607422 -102.16982422 25.04607422 -103.36328125 26.11328125 C-124.91237585 46.47140689 -132.09149055 73.37235825 -134 102 C-134.33 102 -134.66 102 -135 102 C-137.65409064 77.66550634 -129.93440276 54.60298848 -114.8125 35.4375 C-113.23418794 33.60244197 -111.62791086 31.79120439 -110 30 C-109.52433594 29.47519043 -109.04867187 28.95038086 -108.55859375 28.40966797 C-100.8814381 20.04775323 -92.87982532 13.57053981 -83 8 C-81.90171875 7.36320312 -80.8034375 6.72640625 -79.671875 6.0703125 C-55.03380851 -7.28008167 -26.43245163 -7.88516715 0 0 Z " fill="#DDB54B" transform="translate(214,54)"/>
<path d="M0 0 C0.66 0.33 1.32 0.66 2 1 C1.11699219 1.71542969 0.23398438 2.43085937 -0.67578125 3.16796875 C-13.61889917 13.83489568 -23.33645828 25.0578433 -31 40 C-31.72316406 41.40378906 -31.72316406 41.40378906 -32.4609375 42.8359375 C-44.14893175 66.99112562 -45.23956573 96.35576072 -36.99926758 121.79467773 C-32.38784433 134.98283735 -25.53584682 146.04769145 -17 157 C-16.34 157.99 -15.68 158.98 -15 160 C-15.99 160 -16.98 160 -18 160 C-19.70802802 158.22722723 -21.15401901 156.52020473 -22.625 154.5625 C-23.06158936 153.98483887 -23.49817871 153.40717773 -23.94799805 152.81201172 C-40.81183198 129.78516322 -48.37659634 100.83434417 -44.17553711 72.52758789 C-40.82253844 52.6463577 -32.89564912 34.5057462 -20 19 C-19.27941406 18.12730469 -18.55882813 17.25460938 -17.81640625 16.35546875 C-12.46178188 10.14181374 -6.47809083 5.01295253 0 0 Z " fill="#E1BE55" transform="translate(118,65)"/>
<path d="M0 0 C2.14576637 -0.02685938 4.29162645 -0.04633088 6.4375 -0.0625 C7.63246094 -0.07410156 8.82742187 -0.08570312 10.05859375 -0.09765625 C13 0 13 0 14 1 C14.04092937 3.33297433 14.04241723 5.66705225 14 8 C14.66 8.33 15.32 8.66 16 9 C14.67556233 12.97331301 12.92629159 13.62506104 9.42578125 15.87109375 C8.86432907 16.23469498 8.30287689 16.5982962 7.72441101 16.97291565 C5.92534039 18.1355956 4.11918582 19.2866972 2.3125 20.4375 C1.11474019 21.20821691 -0.08253133 21.97969323 -1.27929688 22.75195312 C-3.4992064 24.18378355 -5.72226903 25.61013643 -7.94799805 27.03295898 C-10.06152545 28.39514523 -12.14504979 29.80459891 -14.20239258 31.25024414 C-17 33 -17 33 -20 33 C-18.61985448 29.60278715 -17.42241066 28.38045351 -14.12109375 26.8359375 C-5.63190508 22.83363047 -5.63190508 22.83363047 -0.10546875 15.72998047 C0.85991138 10.45921483 0.5658987 5.30311254 0 0 Z " fill="#F8D867" transform="translate(121,114)"/>
<path d="M0 0 C1.35981942 3.37816773 0.6463729 5.7687919 -0.3359375 9.17553711 C-5.85109573 28.76733093 -5.03513152 52.60858046 1 72 C1.32145996 73.04365723 1.32145996 73.04365723 1.64941406 74.10839844 C6.2304177 88.46487708 15.35501322 110.67843575 29.1875 118.1875 C33.36404202 120.8790493 36.55962593 124.44123249 40 128 C40.95634668 128.93952651 41.9143223 129.87740247 42.875 130.8125 C45 133 45 133 47 136 C28.73676535 129.7694019 14.3724237 107.73312405 6.04052734 91.19921875 C-7.15912137 63.30094666 -10.35581737 31.03520408 -0.55078125 1.51953125 C-0.36902344 1.01808594 -0.18726562 0.51664062 0 0 Z " fill="#CAA143" transform="translate(69,115)"/>
<path d="M0 0 C3.81665295 1.51129211 5.58911684 3.71516718 8.0625 6.9375 C15.60255935 16.36875457 23.76317891 24.51996101 34 31 C35.11375 31.74830078 35.11375 31.74830078 36.25 32.51171875 C58.25401011 46.67308336 82.54285137 48.71328158 108 50 C108 50.33 108 50.66 108 51 C79.42429112 54.70635432 49.60019751 46.79147489 26.5625 29.4375 C16.66462198 21.72490695 6.8868223 12.53278705 0 2 C0 1.34 0 0.68 0 0 Z " fill="#5F5644" transform="translate(89,213)"/>
<path d="M0 0 C0.33 0 0.66 0 1 0 C1.3609304 6.21180211 -0.59289646 10.99822722 -2.7109375 16.7578125 C-5.75278249 25.97494207 -6.38713725 35.54521426 -6.375 45.1875 C-6.37693359 46.80192993 -6.37693359 46.80192993 -6.37890625 48.44897461 C-6.25735853 57.72044169 -4.72217459 66.16508515 -2 75 C-2.66 75 -3.32 75 -4 75 C-4.495 75.99 -4.495 75.99 -5 77 C-5.64881448 74.45906145 -6.29412899 71.91731727 -6.9375 69.375 C-7.11990234 68.66214844 -7.30230469 67.94929688 -7.49023438 67.21484375 C-13.15677688 44.75472983 -10.36415034 20.72830068 0 0 Z " fill="#EBC95D" transform="translate(92,109)"/>
<path d="M0 0 C3 0 3 0 4.47265625 1.43359375 C4.99730469 2.09488281 5.52195312 2.75617188 6.0625 3.4375 C20.74671824 20.77218917 42.24705013 33.34073373 65.02148438 35.79711914 C71.85268319 36.26242457 78.71873254 36.10006807 85.5625 36.0625 C87.15950381 36.05747543 88.75650914 36.05291421 90.35351562 36.04882812 C94.23571533 36.03789728 98.11784051 36.02068533 102 36 C91.40110717 43.06592855 70.92250516 39.90990334 59.07299805 37.56518555 C49.04606699 35.28524925 40.01048678 31.92588036 31 27 C30.11570313 26.53980469 29.23140625 26.07960937 28.3203125 25.60546875 C17.55358442 19.63733034 7.49493293 10.73661982 0 1 C0 0.67 0 0.34 0 0 Z " fill="#716243" transform="translate(102,216)"/>
<path d="M0 0 C1.28455981 3.85367943 0.42746533 5.41180342 -0.8125 9.25 C-9.56888371 38.82173184 -5.07887614 70.07013 9.45800781 96.99682617 C13.7165672 104.56014922 18.6798667 111.99786083 25 118 C24.67 118.66 24.34 119.32 24 120 C17.122243 112.94711492 11.81441351 105.58521182 7 97 C6.37996094 95.8965625 5.75992188 94.793125 5.12109375 93.65625 C-3.82714343 76.80341453 -7.39595732 58.9364737 -7.375 39.9375 C-7.37578552 39.25834534 -7.37657104 38.57919067 -7.37738037 37.87945557 C-7.33513871 7.33513871 -7.33513871 7.33513871 0 0 Z " fill="#4D4944" transform="translate(72,113)"/>
<path d="M0 0 C1.65 0 3.3 0 5 0 C5.99 2.31 6.98 4.62 8 7 C9.54571278 4.68143083 10.79618552 2.49361571 12 0 C13.65 0 15.3 0 17 0 C17 4.95 17 9.9 17 15 C15.68 15 14.36 15 13 15 C12.67 13.35 12.34 11.7 12 10 C11.34 11.65 10.68 13.3 10 15 C8.0625 14.6875 8.0625 14.6875 6 14 C5.67 13.01 5.34 12.02 5 11 C4.67 12.32 4.34 13.64 4 15 C2.68 15 1.36 15 0 15 C0 10.05 0 5.1 0 0 Z " fill="#F4F3F4" transform="translate(122,152)"/>
<path d="M0 0 C0.33 0 0.66 0 1 0 C1.08975098 0.75394043 1.17950195 1.50788086 1.27197266 2.28466797 C4.27969699 26.88957604 8.63377971 49.93973552 25.53125 69.046875 C27 71 27 71 27 74 C17.72979698 70.53411329 11.7466435 55.44289838 7.72265625 46.921875 C0.81232907 31.61215175 -0.33031811 16.51590545 0 0 Z " fill="#F1D061" transform="translate(78,148)"/>
<path d="M0 0 C0.74830078 0.51046875 0.74830078 0.51046875 1.51171875 1.03125 C3.99496531 2.70755289 6.49537722 4.35579701 9 6 C9.97839844 6.6496875 10.95679687 7.299375 11.96484375 7.96875 C34.55784453 22.49082714 63.07303789 28.15066242 89.57226562 22.71362305 C94.646652 21.55423982 99.48270341 20.23692685 104.3203125 18.30078125 C108 17 108 17 111 18 C87.12066175 28.18798074 60.81059598 29.94938995 36 22 C35.02111816 21.68869141 35.02111816 21.68869141 34.02246094 21.37109375 C21.02722462 17.13034248 9.37406646 10.97088726 -1 2 C-0.67 1.34 -0.34 0.68 0 0 Z " fill="#534D44" transform="translate(114,233)"/>
<path d="M0 0 C1.34711632 4.04134896 0.20840585 5.77710132 -1.25 9.75 C-5.30972605 21.37596306 -7.30716429 32.72836075 -7.62207031 45.01098633 C-7.74217045 48.80132978 -7.88236121 51.77676666 -10 55 C-10.35451565 43.89184301 -9.73952354 33.52277344 -7.65625 22.59765625 C-6.9102753 19.11761971 -6.9102753 19.11761971 -7 16 C-9.99367818 28.97260545 -10.68405656 41.71990205 -11 55 C-11.99 55.495 -11.99 55.495 -13 56 C-13.51467784 40.04498681 -12.48941756 24.14456333 -7 9 C-6.67 9.99 -6.34 10.98 -6 12 C-5.34 12 -4.68 12 -4 12 C-3.79503906 11.30132812 -3.59007813 10.60265625 -3.37890625 9.8828125 C-3.10949219 8.97273438 -2.84007813 8.06265625 -2.5625 7.125 C-2.29566406 6.22007813 -2.02882813 5.31515625 -1.75390625 4.3828125 C-1 2 -1 2 0 0 Z " fill="#D9AD43" transform="translate(79,107)"/>
<path d="M0 0 C0.66 0.33 1.32 0.66 2 1 C1.11699219 1.71542969 0.23398438 2.43085937 -0.67578125 3.16796875 C-13.61889917 13.83489568 -23.33645828 25.0578433 -31 40 C-31.72316406 41.40378906 -31.72316406 41.40378906 -32.4609375 42.8359375 C-38.19653011 54.68949556 -40.61826624 67.01897494 -42 80 C-42.33 80 -42.66 80 -43 80 C-44.0389774 73.40674089 -43.88159375 68.46015447 -42.0625 62.0625 C-41.83651123 61.24692627 -41.61052246 60.43135254 -41.37768555 59.59106445 C-34.32387958 35.31746716 -20.40838556 15.05173772 0 0 Z " fill="#DEB64B" transform="translate(118,65)"/>
<path d="M0 0 C4 1 4 1 6.25 4.0625 C7.11625 5.5165625 7.11625 5.5165625 8 7 C8.33 4.69 8.66 2.38 9 0 C10.32 0 11.64 0 13 0 C13 4.95 13 9.9 13 15 C8 14 8 14 5.6875 10.9375 C5.130625 9.968125 4.57375 8.99875 4 8 C3.67 10.31 3.34 12.62 3 15 C2.01 15 1.02 15 0 15 C0 10.05 0 5.1 0 0 Z " fill="#F2F1F1" transform="translate(229,152)"/>
<path d="M0 0 C6.8359375 -0.1953125 6.8359375 -0.1953125 9 0 C11 2 11 2 11.1875 4.9375 C11 8 11 8 10 11 C10.87483915 13.16715557 10.87483915 13.16715557 12 15 C7.68607774 14.5206753 5.83430453 13.2542015 3 10 C3 11.65 3 13.3 3 15 C2.01 15 1.02 15 0 15 C0 10.05 0 5.1 0 0 Z " fill="#E5E5E5" transform="translate(203,152)"/>
<path d="M0 0 C-0.66 0.33 -1.32 0.66 -2 1 C-4.61241542 -0.16609546 -7.14022035 -1.39208855 -9.6875 -2.6875 C-23.03449054 -9.23295976 -36.35380992 -12.19709772 -51.25 -12.125 C-52.1778833 -12.1245166 -53.1057666 -12.1240332 -54.06176758 -12.12353516 C-59.80791272 -12.09432856 -65.44050469 -11.84107588 -71.13671875 -11.0234375 C-72.05904297 -11.01183594 -72.05904297 -11.01183594 -73 -11 C-73.66 -11.66 -74.32 -12.32 -75 -13 C-49.18551061 -19.77101361 -22.54922369 -12.99764223 0 0 Z " fill="#E0B548" transform="translate(234,69)"/>
<path d="M0 0 C1.65 0 3.3 0 5 0 C5.83986084 1.93467942 6.67168027 3.87285129 7.5 5.8125 C7.9640625 6.89144531 8.428125 7.97039062 8.90625 9.08203125 C10 12 10 12 10 15 C8.68 15 7.36 15 6 15 C6 14.01 6 13.02 6 12 C4.02 12 2.04 12 0 12 C0 12.99 0 13.98 0 15 C-1.32 15 -2.64 15 -4 15 C-2.9318153 9.88634986 -1.76892524 4.92772031 0 0 Z " fill="#ECECEC" transform="translate(261,152)"/>
<path d="M0 0 C1.32 0 2.64 0 4 0 C4.33 1.32 4.66 2.64 5 4 C5.391875 3.34 5.78375 2.68 6.1875 2 C8 0 8 0 10.6875 -0.25 C11.8321875 -0.12625 11.8321875 -0.12625 13 0 C12.29875 0.886875 11.5975 1.77375 10.875 2.6875 C8.63152584 5.77424074 8.63152584 5.77424074 9.625 8.625 C10.305625 9.800625 10.305625 9.800625 11 11 C11.556875 12.1446875 11.556875 12.1446875 12.125 13.3125 C12.41375 13.869375 12.7025 14.42625 13 15 C11.35 15 9.7 15 8 15 C7.34 13.35 6.68 11.7 6 10 C5.34 10 4.68 10 4 10 C4 11.65 4 13.3 4 15 C2.68 15 1.36 15 0 15 C0 10.05 0 5.1 0 0 Z " fill="#F6F6F6" transform="translate(102,152)"/>
<path d="M0 0 C4.25267399 0.57162974 7.75601067 1.61707803 11.6875 3.3125 C26.33778575 9.04955855 41.37308618 10.65001313 57 11 C49.54998826 15.77416773 37.29614051 13.60051709 29.12109375 11.8671875 C18.83229157 9.41763216 9.09764502 6.51728149 0 1 C0 0.67 0 0.34 0 0 Z " fill="#F3D161" transform="translate(131,253)"/>
<path d="M0 0 C2 2 2 2 2 5 C0.68 5 -0.64 5 -2 5 C-2 4.34 -2 3.68 -2 3 C-3.32 3 -4.64 3 -6 3 C-5.10664203 5.35785318 -5.10664203 5.35785318 -1.9375 6.125 C-0.4834375 6.558125 -0.4834375 6.558125 1 7 C1.625 9.875 1.625 9.875 2 13 C0 15 0 15 -1.875 15.265625 C-2.57625 15.26046875 -3.2775 15.2553125 -4 15.25 C-4.70125 15.25515625 -5.4025 15.2603125 -6.125 15.265625 C-8 15 -8 15 -10 13 C-10 12.01 -10 11.02 -10 10 C-7.33333333 10.66666667 -4.66666667 11.33333333 -2 12 C-2.90718608 9.66332897 -2.90718608 9.66332897 -6 8.625 C-9 7 -9 7 -10.0625 5 C-10 3 -10 3 -9 1.25 C-5.97268242 -0.64207349 -3.48326495 -0.31666045 0 0 Z " fill="#F3F3F3" transform="translate(294,152)"/>
<path d="M0 0 C0.99 0 1.98 0 3 0 C3 1.98 3 3.96 3 6 C4.98 6 6.96 6 9 6 C9 4.02 9 2.04 9 0 C10.32 0 11.64 0 13 0 C13 4.95 13 9.9 13 15 C11.68 15 10.36 15 9 15 C9 13.02 9 11.04 9 9 C7.02 9 5.04 9 3 9 C3 10.98 3 12.96 3 15 C2.01 15 1.02 15 0 15 C0 10.05 0 5.1 0 0 Z " fill="#FAF9F9" transform="translate(183,152)"/>
<path d="M0 0 C3.63 0 7.26 0 11 0 C11 0.99 11 1.98 11 3 C8.69 3 6.38 3 4 3 C4 3.99 4 4.98 4 6 C5.98 6 7.96 6 10 6 C10 6.99 10 7.98 10 9 C8.02 9 6.04 9 4 9 C4 9.99 4 10.98 4 12 C6.31 12 8.62 12 11 12 C11 12.99 11 13.98 11 15 C7.37 15 3.74 15 0 15 C0 10.05 0 5.1 0 0 Z " fill="#F8F8F8" transform="translate(216,152)"/>
<path d="M0 0 C1.875 0.3984375 1.875 0.3984375 3.875 2.2734375 C4.875 4.3984375 4.875 4.3984375 4.875 6.3984375 C3.555 6.3984375 2.235 6.3984375 0.875 6.3984375 C0.545 5.7384375 0.215 5.0784375 -0.125 4.3984375 C-1.445 4.3984375 -2.765 4.3984375 -4.125 4.3984375 C-4.125 6.7084375 -4.125 9.0184375 -4.125 11.3984375 C0.33 10.9034375 0.33 10.9034375 4.875 10.3984375 C3.875 12.8984375 3.875 12.8984375 1.875 15.3984375 C-0.90648328 16.09960308 -3.33206051 16.01521164 -6.125 15.3984375 C-8.125 13.8359375 -8.125 13.8359375 -9.125 11.3984375 C-9.50967994 7.80809137 -9.49998501 5.31246346 -8.125 1.9609375 C-5.41429093 -0.15680396 -3.37547801 -0.16132799 0 0 Z " fill="#F1F1F1" transform="translate(176.125,151.6015625)"/>
<path d="M0 0 C1 2 1 2 1 5 C1.66 5.33 2.32 5.66 3 6 C2.44570312 6.95261719 1.89140625 7.90523438 1.3203125 8.88671875 C0.58836811 10.15354557 -0.14339305 11.42047827 -0.875 12.6875 C-1.23980469 13.31333984 -1.60460937 13.93917969 -1.98046875 14.58398438 C-3.93741197 17.98194942 -5.65607739 21.30067619 -7 25 C-7.99 25 -8.98 25 -10 25 C-9.01 21.7 -8.02 18.4 -7 15 C-7.33 15.66 -7.66 16.32 -8 17 C-8.66 17 -9.32 17 -10 17 C-8.34564465 10.54801415 -4.70204136 4.70204136 0 0 Z " fill="#4D4944" transform="translate(89,87)"/>
<path d="M0 0 C-0.33 0.99 -0.66 1.98 -1 3 C-3.52601715 4.19606466 -5.94188466 5.18956959 -8.5625 6.125 C-9.25408203 6.38925781 -9.94566406 6.65351563 -10.65820312 6.92578125 C-15.45095374 8.68565426 -19.91702222 9.53115391 -25 10 C-24.67 8.35 -24.34 6.7 -24 5 C-3.91836735 -1.30612245 -3.91836735 -1.30612245 0 0 Z " fill="#D3B960" transform="translate(228,246)"/>
<path d="M0 0 C3.3 0 6.6 0 10 0 C10 0.99 10 1.98 10 3 C7.69 3 5.38 3 3 3 C3 3.99 3 4.98 3 6 C5.31 6 7.62 6 10 6 C10 6.99 10 7.98 10 9 C7.69 9 5.38 9 3 9 C3 9.99 3 10.98 3 12 C5.31 12 7.62 12 10 12 C10 12.99 10 13.98 10 15 C6.7 15 3.4 15 0 15 C0 10.05 0 5.1 0 0 Z " fill="#FBFBFB" transform="translate(155,152)"/>
<path d="M0 0 C0.33 0 0.66 0 1 0 C1.15855469 1.1859375 1.31710938 2.371875 1.48046875 3.59375 C3.96537728 21.23201589 9.06249241 36.08994063 17 52 C17.40863281 52.81984375 17.81726563 53.6396875 18.23828125 54.484375 C18.61533203 55.23460937 18.61533203 55.23460937 19 56 C18.01 56.495 18.01 56.495 17 57 C10.84534291 45.94670172 5.33477212 35.2469142 2 23 C1.75636719 22.11183594 1.51273437 21.22367188 1.26171875 20.30859375 C-0.32626132 13.57858298 -0.19415052 6.88155718 0 0 Z " fill="#E9C152" transform="translate(70,158)"/>
<path d="M0 0 C-2 3 -2 3 -4.4375 3.6796875 C-9.29945464 4.11683693 -14.12089648 4.14441288 -19 4.125 C-20.45792969 4.13080078 -20.45792969 4.13080078 -21.9453125 4.13671875 C-26.74189231 4.1301839 -31.28506547 4.00351647 -36 3 C-36 2.34 -36 1.68 -36 1 C-35.17798096 0.97494385 -34.35596191 0.9498877 -33.5090332 0.92407227 C-29.77670626 0.80787345 -26.04461683 0.68525495 -22.3125 0.5625 C-21.01892578 0.52318359 -19.72535156 0.48386719 -18.39257812 0.44335938 C-17.14541016 0.40146484 -15.89824219 0.35957031 -14.61328125 0.31640625 C-12.89298706 0.26141968 -12.89298706 0.26141968 -11.13793945 0.20532227 C-8.04898148 0.07915476 -8.04898148 0.07915476 -5.27416992 -0.58227539 C-3 -1 -3 -1 0 0 Z " fill="#FCE478" transform="translate(204,254)"/>
<path d="M0 0 C3.01248937 2.92120181 5.79410505 5.91582043 8.5 9.125 C11.13812536 12.17728268 13.51487389 13.95992618 17 16 C19.76743844 18.56936002 22.37587946 21.28557571 25 24 C25.95634668 24.93952651 26.9143223 25.87740247 27.875 26.8125 C30 29 30 29 32 32 C18.62577728 27.43731391 7.6302306 13.40209063 0 2 C0 1.34 0 0.68 0 0 Z " fill="#BEA04D" transform="translate(84,219)"/>
<path d="M0 0 C0.33 0 0.66 0 1 0 C1.10546143 0.79583496 1.21092285 1.59166992 1.31958008 2.41162109 C1.80885635 6.06725555 2.31058789 9.72107986 2.8125 13.375 C2.97814453 14.62667969 3.14378906 15.87835938 3.31445312 17.16796875 C4.21150393 23.63350473 5.26934986 29.6968058 7.51831055 35.83837891 C8.10958317 38.49176349 7.68085297 40.39382867 7 43 C4.79233344 39.68850016 3.91387916 36.54414258 2.9375 32.75 C2.67743164 31.78513672 2.67743164 31.78513672 2.41210938 30.80078125 C0.4454166 23.3107712 -0.143075 16.25431341 -0.0625 8.5625 C-0.05798828 7.73556641 -0.05347656 6.90863281 -0.04882812 6.05664062 C-0.03715811 4.03772854 -0.01922718 2.01885426 0 0 Z " fill="#F0CD5D" transform="translate(78,148)"/>
<path d="M0 0 C-4.30409901 9.58351109 -14.06903657 15.24356622 -23 20 C-23.66 20 -24.32 20 -25 20 C-23.86446629 15.66363303 -21.98357985 13.97031917 -18.20019531 11.66381836 C-17.57725586 11.3003833 -16.95431641 10.93694824 -16.3125 10.5625 C-12.22038765 8.07144486 -8.33239889 5.64720771 -4.75 2.4375 C-2 0 -2 0 0 0 Z " fill="#FBDE6D" transform="translate(254,227)"/>
<path d="M0 0 C0.33 0 0.66 0 1 0 C1 4.95 1 9.9 1 15 C0.34 13.68 -0.32 12.36 -1 11 C-1.63808594 11.08378906 -2.27617187 11.16757813 -2.93359375 11.25390625 C-3.75988281 11.35574219 -4.58617187 11.45757812 -5.4375 11.5625 C-6.26121094 11.66691406 -7.08492187 11.77132812 -7.93359375 11.87890625 C-8.61550781 11.91886719 -9.29742187 11.95882812 -10 12 C-11 11 -11 11 -11.0625 7.4375 C-11.041875 6.303125 -11.02125 5.16875 -11 4 C-9.35 3.67 -7.7 3.34 -6 3 C-5.67 3.99 -5.34 4.98 -5 6 C-3.68 6 -2.36 6 -1 6 C-0.67 4.02 -0.34 2.04 0 0 Z " fill="#585655" transform="translate(182,152)"/>
<path d="M0 0 C1.43188401 0.37625179 2.8602399 0.76613468 4.28515625 1.16796875 C5.00123047 1.35939453 5.71730469 1.55082031 6.45507812 1.74804688 C8.42172007 2.27479342 10.38484256 2.81463154 12.34765625 3.35546875 C16.10356395 4.36920535 19.70896434 4.6659239 23.59765625 4.91796875 C25.49257812 5.04365234 25.49257812 5.04365234 27.42578125 5.171875 C28.39 5.23246094 29.35421875 5.29304688 30.34765625 5.35546875 C29.34765625 6.85546875 29.34765625 6.85546875 27.34765625 8.35546875 C20.81706947 8.97881 14.97248993 7.56858945 8.66015625 5.98046875 C7.73654297 5.75875 6.81292969 5.53703125 5.86132812 5.30859375 C1.55622695 4.25478929 -2.59640002 3.18277814 -6.65234375 1.35546875 C-3.65234375 -0.64453125 -3.65234375 -0.64453125 0 0 Z " fill="#EBC85A" transform="translate(148.65234375,253.64453125)"/>
<path d="M0 0 C2.64 0 5.28 0 8 0 C8.52493438 5.24934383 8.52493438 5.24934383 8 8 C3.4 12 3.4 12 0 12 C0 8.04 0 4.08 0 0 Z " fill="#4E4A44" transform="translate(124,117)"/>
<path d="M0 0 C4.29 0 8.58 0 13 0 C13 0.99 13 1.98 13 3 C11.35 3 9.7 3 8 3 C8 6.96 8 10.92 8 15 C7.01 15 6.02 15 5 15 C5 11.04 5 7.08 5 3 C3.35 3 1.7 3 0 3 C0 2.01 0 1.02 0 0 Z " fill="#FCFCFC" transform="translate(243,152)"/>
<path d="M0 0 C4.29 0 8.58 0 13 0 C13 0.99 13 1.98 13 3 C11.35 3 9.7 3 8 3 C8 6.96 8 10.92 8 15 C7.01 15 6.02 15 5 15 C5 11.04 5 7.08 5 3 C3.35 3 1.7 3 0 3 C0 2.01 0 1.02 0 0 Z " fill="#FCFCFC" transform="translate(140,152)"/>
<path d="M0 0 C0.33 0.99 0.66 1.98 1 3 C1.66 3.33 2.32 3.66 3 4 C2.53851563 4.35578125 2.07703125 4.7115625 1.6015625 5.078125 C-5.9924209 14.19090508 -3.73470588 34.84885249 -4 46 C-4.99 46.495 -4.99 46.495 -6 47 C-6.51467784 31.04498681 -5.48941756 15.14456333 0 0 Z " fill="#C49B3E" transform="translate(72,116)"/>
<path d="M0 0 C0.66 0 1.32 0 2 0 C-0.05947678 5.69146046 -3.43029686 10.16312951 -7 15 C-7.47179687 15.64195312 -7.94359375 16.28390625 -8.4296875 16.9453125 C-10.768457 19.95230185 -12.24254101 21.37375683 -16 22 C-17.73026102 23.47890069 -17.73026102 23.47890069 -19 25 C-19.66 24.67 -20.32 24.34 -21 24 C-20.47792969 23.58492187 -19.95585937 23.16984375 -19.41796875 22.7421875 C-12.12381172 16.63604554 -4.30817344 8.61634689 0 0 Z " fill="#B49346" transform="translate(267,207)"/>
<path d="M0 0 C0.33 0 0.66 0 1 0 C1 4.95 1 9.9 1 15 C0.34 14.67 -0.32 14.34 -1 14 C-1 13.34 -1 12.68 -1 12 C-3.31 12 -5.62 12 -8 12 C-8 11.01 -8 10.02 -8 9 C-6.02 9 -4.04 9 -2 9 C-2 8.01 -2 7.02 -2 6 C-3.98 6 -5.96 6 -8 6 C-8 5.01 -8 4.02 -8 3 C-5.69 3 -3.38 3 -1 3 C-0.67 2.01 -0.34 1.02 0 0 Z " fill="#575554" transform="translate(228,152)"/>
<path d="M0 0 C2.95976202 2.56099169 4.38183945 5.46381049 6.125 8.9375 C9.77609628 15.88937415 14.17901382 21.81421325 19 28 C19.66 28.99 20.32 29.98 21 31 C20.01 31 19.02 31 18 31 C16.27706695 29.18525879 14.80441836 27.4307304 13.3125 25.4375 C12.87695801 24.86338379 12.44141602 24.28926758 11.99267578 23.69775391 C8.74286461 19.28771871 5.96004431 14.70148058 3.375 9.875 C3.03251221 9.23618896 2.69002441 8.59737793 2.3371582 7.93920898 C0.87006501 5.09163643 0 3.24853643 0 0 Z " fill="#EEC858" transform="translate(82,194)"/>
<path d="M0 0 C0.66 0.33 1.32 0.66 2 1 C0.67548828 2.07314453 0.67548828 2.07314453 -0.67578125 3.16796875 C-11.92645896 12.4453683 -21.34470704 22.49958492 -29 35 C-29.33 34.34 -29.66 33.68 -30 33 C-21.60004367 20.14080759 -12.46203883 9.19109154 0 0 Z " fill="#EAC150" transform="translate(118,65)"/>
<path d="M0 0 C0.99 0 1.98 0 3 0 C3 3.96 3 7.92 3 12 C5.31 12 7.62 12 10 12 C10 12.99 10 13.98 10 15 C6.7 15 3.4 15 0 15 C0 10.05 0 5.1 0 0 Z " fill="#FDFCFC" transform="translate(273,152)"/>
<path d="M0 0 C1 1 1 1 1.1875 3.4375 C1 6 1 6 -1 8 C-3.5625 8.1875 -3.5625 8.1875 -6 8 C-7 7 -7 7 -7.0625 3.4375 C-7.041875 2.303125 -7.02125 1.16875 -7 0 C-4.31633121 -1.3418344 -2.84719317 -0.73004953 0 0 Z " fill="#F5DA6D" transform="translate(169,126)"/>
<path d="M0 0 C3.69230769 0.69230769 3.69230769 0.69230769 5 2 C5.14115161 4.67058851 5.04247107 7.32432238 5 10 C3.02 10 1.04 10 -1 10 C-1.8403457 6.63861721 -2.17718642 4.29612199 -1 1 C-0.67 0.67 -0.34 0.34 0 0 Z " fill="#C5C3C2" transform="translate(125,176)"/>
<path d="M0 0 C4.55555556 0.55555556 4.55555556 0.55555556 6 2 C6.1875 4.4375 6.1875 4.4375 6 7 C4 9 4 9 1.4375 9.1875 C-1 9 -1 9 -2 8 C-2.1875 5.0625 -2.1875 5.0625 -2 2 C-1.34 1.34 -0.68 0.68 0 0 Z " fill="#F6DB6E" transform="translate(164,135)"/>
<path d="M0 0 C0.9075 0.78375 1.815 1.5675 2.75 2.375 C5.18333054 4.47217973 7.6429933 6.53007872 10.13671875 8.5546875 C10.68038086 8.99893066 11.22404297 9.44317383 11.78417969 9.90087891 C12.88115757 10.79602064 13.98205306 11.686384 15.08691406 12.57177734 C16.42858312 13.67047705 17.71932249 14.83077718 19 16 C19 16.66 19 17.32 19 18 C10.78266587 16.82609512 3.94814385 7.12007266 -1 1 C-0.67 0.67 -0.34 0.34 0 0 Z " fill="#F7D867" transform="translate(105,221)"/>
<path d="M0 0 C3 1 3 1 4.83203125 4.28125 C5.50034744 5.68364039 6.16005244 7.09015692 6.8125 8.5 C9.77407602 14.68187709 12.934431 20.45604227 17 26 C16.01 26 15.02 26 14 26 C12.38492378 23.90100581 11.00029274 21.87416766 9.625 19.625 C9.22869385 18.99174805 8.8323877 18.35849609 8.42407227 17.70605469 C0 4.06626004 0 4.06626004 0 0 Z " fill="#534D44" transform="translate(87,190)"/>
<path d="M0 0 C1.32 0 2.64 0 4 0 C4 4.95 4 9.9 4 15 C2.68 15 1.36 15 0 15 C0 10.05 0 5.1 0 0 Z " fill="#F4F4F5" transform="translate(116,152)"/>
<path d="M0 0 C4.55555556 0.55555556 4.55555556 0.55555556 6 2 C6.1875 4.4375 6.1875 4.4375 6 7 C5.34 7.66 4.68 8.32 4 9 C-0.55555556 8.44444444 -0.55555556 8.44444444 -2 7 C-2.1875 4.5625 -2.1875 4.5625 -2 2 C-1.34 1.34 -0.68 0.68 0 0 Z " fill="#FBE173" transform="translate(154,135)"/>
<path d="M0 0 C4.55555556 0.55555556 4.55555556 0.55555556 6 2 C6.1875 4.4375 6.1875 4.4375 6 7 C5.34 7.66 4.68 8.32 4 9 C-0.55555556 8.44444444 -0.55555556 8.44444444 -2 7 C-2.1875 4.5625 -2.1875 4.5625 -2 2 C-1.34 1.34 -0.68 0.68 0 0 Z " fill="#FBE173" transform="translate(154,125)"/>
<path d="M0 0 C1.65 0.33 3.3 0.66 5 1 C5 3.64 5 6.28 5 9 C3.02 9.99 3.02 9.99 1 11 C-1 9 -1 9 -1.1875 5.5 C-1 2 -1 2 0 0 Z " fill="#DDDCDB" transform="translate(189,176)"/>
<path d="M0 0 C2.125 0.375 2.125 0.375 4 1 C5.10844919 4.32534757 4.84454356 6.62182575 4 10 C2.33388095 10.042721 0.66617115 10.04063832 -1 10 C-2 9 -2 9 -2.1875 5.5625 C-2 2 -2 2 0 0 Z " fill="#D7D6D6" transform="translate(115,176)"/>
<path d="M0 0 C0.66 0.66 1.32 1.32 2 2 C-3.20770173 6.21048225 -7.39070617 7.99586692 -14 9 C-13.34 8.67 -12.68 8.34 -12 8 C-12 7.01 -12 6.02 -12 5 C-14.31 5.33 -16.62 5.66 -19 6 C-15.63576723 3.03947516 -12.30840713 2.07710178 -8 1 C-8.66 2.65 -9.32 4.3 -10 6 C-6.7 4.02 -3.4 2.04 0 0 Z " fill="#756445" transform="translate(239,241)"/>
<path d="M0 0 C3.875 0.875 3.875 0.875 5 2 C5.14115161 4.67058851 5.04247107 7.32432238 5 10 C3.35 10 1.7 10 0 10 C-0.95024979 6.30458414 -0.95024979 3.69541586 0 0 Z " fill="#E3E3E3" transform="translate(173,176)"/>
<path d="M0 0 C0.66 0 1.32 0 2 0 C1.56367091 6.88940671 0.91610155 13.35751464 -1 20 C-1.99 20 -2.98 20 -4 20 C-5.28961193 17.42077613 -4.79211692 16.59708789 -4.00390625 13.8671875 C-3.77509766 13.06152344 -3.54628906 12.25585938 -3.31054688 11.42578125 C-3.06369141 10.58402344 -2.81683594 9.74226562 -2.5625 8.875 C-2.31951172 8.02550781 -2.07652344 7.17601562 -1.82617188 6.30078125 C-1.2238569 4.19858388 -0.61489475 2.09854569 0 0 Z " fill="#E6C35B" transform="translate(278,167)"/>
<path d="M0 0 C0 4.29 0 8.58 0 13 C-3 12 -3 12 -4.8125 9.75 C-6 7 -6 7 -5.375 4.3125 C-2.81081081 0 -2.81081081 0 0 0 Z " fill="#4A4948" transform="translate(116,153)"/>
<path d="M0 0 C1.65 0 3.3 0 5 0 C4.01 0.495 4.01 0.495 3 1 C3.185625 1.845625 3.37125 2.69125 3.5625 3.5625 C4.03529632 7.2773282 3.66064631 10.32974273 3 14 C3.66 14.33 4.32 14.66 5 15 C3.35 15 1.7 15 0 15 C0 10.05 0 5.1 0 0 Z " fill="#EEEEEE" transform="translate(147,171)"/>
<path d="M0 0 C0.66 0.33 1.32 0.66 2 1 C1.5875 1.37697021 1.175 1.75394043 0.75 2.14233398 C-6.86967516 9.12526453 -14.39659825 16.02528479 -21 24 C-21 20.0369954 -19.72653651 19.24396239 -17.0625 16.375 C-16.24652344 15.49585937 -15.43054688 14.61671875 -14.58984375 13.7109375 C-4.10714286 2.73809524 -4.10714286 2.73809524 0 0 Z " fill="#EEC653" transform="translate(120,69)"/>
<path d="M0 0 C0.66 0 1.32 0 2 0 C3.00460531 2.12282669 4.00355602 4.24833021 5 6.375 C5.556875 7.55835938 6.11375 8.74171875 6.6875 9.9609375 C8 13 8 13 8 15 C7.01 15.33 6.02 15.66 5 16 C4.15488176 14.27656245 3.32436646 12.54595947 2.5 10.8125 C2.0359375 9.84957031 1.571875 8.88664063 1.09375 7.89453125 C0.00407079 5.01077307 -0.22277524 3.04645139 0 0 Z " fill="#F6D768" transform="translate(88,184)"/>
<path d="M0 0 C0.99 0 1.98 0 3 0 C3 4.95 3 9.9 3 15 C2.01 14.67 1.02 14.34 0 14 C0 9.38 0 4.76 0 0 Z " fill="#F7F6F6" transform="translate(133,171)"/>
<path d="M0 0 C0.33 0.66 0.66 1.32 1 2 C-0.36078271 4.62710761 -1.76905403 7.10906702 -3.3125 9.625 C-3.72951172 10.33140625 -4.14652344 11.0378125 -4.57617188 11.765625 C-5.65567248 13.54929745 -6.82186531 15.27988151 -8 17 C-8.66 17 -9.32 17 -10 17 C-8.34564465 10.54801415 -4.70204136 4.70204136 0 0 Z " fill="#4A4743" transform="translate(89,87)"/>
<path d="M0 0 C1.485 0.99 1.485 0.99 3 2 C3.29296875 5.0390625 3.29296875 5.0390625 3.1875 8.625 C3.16042969 9.81351563 3.13335937 11.00203125 3.10546875 12.2265625 C3.07066406 13.14179688 3.03585938 14.05703125 3 15 C2.01 15 1.02 15 0 15 C0 10.05 0 5.1 0 0 Z " fill="#F5F5F5" transform="translate(107,171)"/>
<path d="M0 0 C3.95474138 1.8375566 7.57785633 4.16385982 11.25 6.5 C11.8996875 6.90347656 12.549375 7.30695313 13.21875 7.72265625 C14.84875019 8.76024041 16.42939066 9.87453662 18 11 C18 11.66 18 12.32 18 13 C10.26977016 10.04432389 4.69491877 7.04237815 0 0 Z " fill="#8A7343" transform="translate(109,244)"/>
<path d="M0 0 C2 0.25 2 0.25 4 1 C4.33 1.99 4.66 2.98 5 4 C4.01 4.495 4.01 4.495 3 5 C3.66 6.32 4.32 7.64 5 9 C4.01 9.33 3.02 9.66 2 10 C-0.29379749 6.55930376 -1 5.27709699 -1 1 C-0.67 0.67 -0.34 0.34 0 0 Z " fill="#DFDFDF" transform="translate(157,176)"/>
<path d="M0 0 C0 0.66 0 1.32 0 2 C-0.66 2 -1.32 2 -2 2 C-2.226875 2.53625 -2.45375 3.0725 -2.6875 3.625 C-4.43382056 6.78500863 -6.6402849 9.2676983 -9 12 C-9 7.46610126 -8.67192805 5.77802195 -5.625 2.25 C-3 0 -3 0 0 0 Z " fill="#8B7341" transform="translate(101,76)"/>
<path d="M0 0 C-2.85867556 2.85867556 -6.34173436 3.50112834 -10.125 4.625 C-10.87910156 4.85445312 -11.63320312 5.08390625 -12.41015625 5.3203125 C-14.27173159 5.88585438 -16.13565151 6.44366822 -18 7 C-18.66 6.34 -19.32 5.68 -20 5 C-17.79567015 4.15450362 -15.58751467 3.32357186 -13.375 2.5 C-11.53035156 1.80390625 -11.53035156 1.80390625 -9.6484375 1.09375 C-6.18957134 0.05683081 -3.57814964 -0.22019382 0 0 Z " fill="#EAC456" transform="translate(161,57)"/>
<path d="M0 0 C0.99 0 1.98 0 3 0 C3 3.96 3 7.92 3 12 C2.01 11.67 1.02 11.34 0 11 C0 7.37 0 3.74 0 0 Z " fill="#F0EFEF" transform="translate(165,174)"/>
<path d="M0 0 C0.99 0 1.98 0 3 0 C3 3.96 3 7.92 3 12 C2.34 12 1.68 12 1 12 C-0.26237731 9.47524538 -0.09856404 7.68799534 -0.0625 4.875 C-0.05347656 3.96492187 -0.04445312 3.05484375 -0.03515625 2.1171875 C-0.02355469 1.41851562 -0.01195312 0.71984375 0 0 Z " fill="#E2E1E1" transform="translate(181,174)"/>
<path d="M0 0 C0.33 0 0.66 0 1 0 C1 4.62 1 9.24 1 14 C1.66 14.33 2.32 14.66 3 15 C2 18 2 18 -1 20 C-1.99 19.67 -2.98 19.34 -4 19 C-3.01 17.515 -3.01 17.515 -2 16 C-1.34 16 -0.68 16 0 16 C0 10.72 0 5.44 0 0 Z " fill="#FDE577" transform="translate(122,116)"/>
<path d="M0 0 C0.33 0.66 0.66 1.32 1 2 C0.0625 4.125 0.0625 4.125 -1 6 C-0.34 6 0.32 6 1 6 C1.33 5.01 1.66 4.02 2 3 C2.33 3.66 2.66 4.32 3 5 C2.0625 7.125 2.0625 7.125 1 9 C0.34 9 -0.32 9 -1 9 C-1 9.66 -1 10.32 -1 11 C-1.99 11.33 -2.98 11.66 -4 12 C-3.5317879 7.22423661 -2.75668002 3.95523655 0 0 Z " fill="#997E44" transform="translate(80,98)"/>
<path d="M0 0 C0.33 0 0.66 0 1 0 C2.71084699 5.51272919 3.4606443 8.53190155 1 14 C0.67 14 0.34 14 0 14 C0 12.35 0 10.7 0 9 C-0.99 8.67 -1.98 8.34 -3 8 C-2.67 6.68 -2.34 5.36 -2 4 C-1.34 4 -0.68 4 0 4 C0 2.68 0 1.36 0 0 Z " fill="#695C44" transform="translate(161,128)"/>
<path d="M0 0 C0.33 0.99 0.66 1.98 1 3 C1.66 3.33 2.32 3.66 3 4 C2.53980469 4.32613281 2.07960938 4.65226562 1.60546875 4.98828125 C-0.81154971 8.01690535 -1.09166984 11.45949163 -1.6875 15.1875 C-1.81705078 15.93708984 -1.94660156 16.68667969 -2.08007812 17.45898438 C-2.39740538 19.30418359 -2.70013291 21.151883 -3 23 C-3.66 22.67 -4.32 22.34 -5 22 C-4.54702053 19.45727525 -4.08779821 16.91594018 -3.625 14.375 C-3.49867187 13.66214844 -3.37234375 12.94929687 -3.2421875 12.21484375 C-2.46899424 8.00094047 -1.46604985 4.04119829 0 0 Z " fill="#B9933F" transform="translate(72,116)"/>
<path d="M0 0 C0.66 0.33 1.32 0.66 2 1 C0.42065361 1.98558449 -1.16365173 2.96322541 -2.75 3.9375 C-4.07257813 4.75541016 -4.07257813 4.75541016 -5.421875 5.58984375 C-7.72346019 6.8487411 -9.39976054 7.74325367 -12 8 C-12.99 7.34 -13.98 6.68 -15 6 C-12.54524486 4.96971956 -10.08685649 3.95054496 -7.625 2.9375 C-6.57699219 2.49567383 -6.57699219 2.49567383 -5.5078125 2.04492188 C-3.69495092 1.30408902 -1.84876857 0.64603036 0 0 Z " fill="#EAC354" transform="translate(230,248)"/>
<path d="M0 0 C1 3 1 3 0.00390625 5.26171875 C-0.47175781 6.06222656 -0.94742188 6.86273438 -1.4375 7.6875 C-2.14712891 8.89986328 -2.14712891 8.89986328 -2.87109375 10.13671875 C-3.24363281 10.75160156 -3.61617188 11.36648437 -4 12 C-4.66 12 -5.32 12 -6 12 C-5.49734762 8.31388251 -5.0311783 5.15961069 -3 2 C-2.01 1.34 -1.02 0.68 0 0 Z " fill="#615743" transform="translate(80,95)"/>
<path d="M0 0 C4.08378283 0.74250597 8.01939223 1.82923301 12 3 C12 3.66 12 4.32 12 5 C12.66 5.33 13.32 5.66 14 6 C5.03896104 5.1038961 5.03896104 5.1038961 2 3 C1.34 2.01 0.68 1.02 0 0 Z " fill="#AF9047" transform="translate(138,258)"/>
<path d="M0 0 C1.49080078 0.43119141 1.49080078 0.43119141 3.01171875 0.87109375 C4.15060547 1.21333984 4.15060547 1.21333984 5.3125 1.5625 C2.3125 3.5625 2.3125 3.5625 0.12109375 3.390625 C-0.66136719 3.19984375 -1.44382813 3.0090625 -2.25 2.8125 C-3.03503906 2.63203125 -3.82007813 2.4515625 -4.62890625 2.265625 C-6.6875 1.5625 -6.6875 1.5625 -8.6875 -0.4375 C-5.05554504 -1.64815165 -3.62218371 -1.06534815 0 0 Z " fill="#E2C059" transform="translate(150.6875,254.4375)"/>
<path d="M0 0 C1.32 0.66 2.64 1.32 4 2 C1.35039045 5.63094642 -1.01824456 7.89851796 -5 10 C-3.84414715 6.08788267 -2.64465038 3.1254959 0 0 Z " fill="#907842" transform="translate(88,91)"/>
<path d="M0 0 C0 3 0 3 -2.25 5.5625 C-4.56779964 7.61691332 -6.20175065 8.8265406 -9 10 C-10.33578426 10.66174211 -11.66944437 11.32780662 -13 12 C-12.09515208 10.84481082 -11.1755794 9.70114594 -10.25 8.5625 C-9.73953125 7.92441406 -9.2290625 7.28632813 -8.703125 6.62890625 C-6.77468125 4.78450018 -5.55701564 4.54493776 -3 4 C-1.24577228 2.02329393 -1.24577228 2.02329393 0 0 Z " fill="#C3A654" transform="translate(259,220)"/>
<path d="M0 0 C-0.33 0.99 -0.66 1.98 -1 3 C-4.5625 4.1875 -4.5625 4.1875 -8 5 C-8 3.68 -8 2.36 -8 1 C-3.375 -1.125 -3.375 -1.125 0 0 Z " fill="#F6D96A" transform="translate(228,246)"/>
<path d="M0 0 C0.99 0.33 1.98 0.66 3 1 C3 3.64 3 6.28 3 9 C2.01 8.67 1.02 8.34 0 8 C0 5.36 0 2.72 0 0 Z " fill="#E2E1E1" transform="translate(127,177)"/>
<path d="M0 0 C0.33 0 0.66 0 1 0 C1.22211116 1.93596892 1.42722992 3.87389328 1.625 5.8125 C1.74101563 6.89144531 1.85703125 7.97039062 1.9765625 9.08203125 C2 12 2 12 0 15 C-1.33257403 4.44191344 -1.33257403 4.44191344 0 0 Z " fill="#DFBA52" transform="translate(80,163)"/>
<path d="M0 0 C-0.66 1.98 -1.32 3.96 -2 6 C-2.66 6 -3.32 6 -4 6 C-4 5.34 -4 4.68 -4 4 C-6.31 4.33 -8.62 4.66 -11 5 C-7.72709962 2.33319229 -4.35126896 0 0 0 Z " fill="#A18D52" transform="translate(231,242)"/>
<path d="M0 0 C1.17539996 0.92652701 2.34010577 1.86663387 3.5 2.8125 C4.1496875 3.33457031 4.799375 3.85664063 5.46875 4.39453125 C7 6 7 6 7 9 C5.82460004 8.07347299 4.65989423 7.13336613 3.5 6.1875 C2.52546875 5.40439453 2.52546875 5.40439453 1.53125 4.60546875 C0 3 0 3 0 0 Z " fill="#FFE370" transform="translate(105,221)"/>
<path d="M0 0 C2.15377564 2.62198774 3.40072174 4.64404172 4 8 C3.01 8.33 2.02 8.66 1 9 C-0.61949011 6.42786866 -1.04408751 5.32330841 -0.625 2.25 C-0.41875 1.5075 -0.2125 0.765 0 0 Z " fill="#EDCD60" transform="translate(92,191)"/>
<path d="M0 0 C2.97851562 0.53710938 2.97851562 0.53710938 5.95703125 1.07421875 C4.96703125 1.56921875 4.96703125 1.56921875 3.95703125 2.07421875 C3.95703125 2.73421875 3.95703125 3.39421875 3.95703125 4.07421875 C0.98703125 3.74421875 -1.98296875 3.41421875 -5.04296875 3.07421875 C-2.04296875 0.07421875 -2.04296875 0.07421875 0 0 Z " fill="#EFCC5D" transform="translate(164.04296875,252.92578125)"/>
<path d="M0 0 C1 2 1 2 0.44140625 3.9453125 C0.15136719 4.66460937 -0.13867188 5.38390625 -0.4375 6.125 C-0.72496094 6.84945312 -1.01242188 7.57390625 -1.30859375 8.3203125 C-1.53675781 8.87460938 -1.76492187 9.42890625 -2 10 C-2.66 10 -3.32 10 -4 10 C-3.71872579 8.51882199 -3.42466268 7.04006751 -3.125 5.5625 C-2.96257812 4.73878906 -2.80015625 3.91507812 -2.6328125 3.06640625 C-2.42398438 2.38449219 -2.21515625 1.70257813 -2 1 C-1.34 0.67 -0.68 0.34 0 0 Z " fill="#4E4944" transform="translate(77,109)"/>
<path d="M0 0 C4.59306496 1.4859916 7.43569245 3.85014682 11 7 C7.41584854 7 6.58796261 6.21108216 3.8125 4.0625 C3.09707031 3.51722656 2.38164063 2.97195312 1.64453125 2.41015625 C1.10183594 1.94480469 0.55914062 1.47945312 0 1 C0 0.67 0 0.34 0 0 Z " fill="#EEC552" transform="translate(105,243)"/>
<path d="M0 0 C-0.33 0.66 -0.66 1.32 -1 2 C-3.97 1.67 -6.94 1.34 -10 1 C-6.1496895 -1.56687367 -4.41430237 -0.83288724 0 0 Z " fill="#967C43" transform="translate(163,264)"/>
<path d="M0 0 C7.75 -0.125 7.75 -0.125 10 1 C10 1.66 10 2.32 10 3 C6.7 2.34 3.4 1.68 0 1 C0 0.67 0 0.34 0 0 Z " fill="#FBDC6B" transform="translate(156,262)"/>
<path d="M0 0 C3.3 0.33 6.6 0.66 10 1 C5.64467851 3.17766075 4.53374042 3.03039555 0 2 C0 1.34 0 0.68 0 0 Z " fill="#EFCC5D" transform="translate(150,260)"/>
<path d="M0 0 C-0.99 1.485 -0.99 1.485 -2 3 C-3.65 2.67 -5.3 2.34 -7 2 C-5.26578631 -1.46842738 -3.40984787 -1.13661596 0 0 Z " fill="#F9DB6B" transform="translate(204,254)"/>
<path d="M0 0 C3.48539917 0.64544429 6.02819057 2.10134397 9 4 C8.67 4.66 8.34 5.32 8 6 C6.66402348 5.19185349 5.331275 4.37836819 4 3.5625 C3.2575 3.11003906 2.515 2.65757812 1.75 2.19140625 C1.1725 1.79824219 0.595 1.40507812 0 1 C0 0.67 0 0.34 0 0 Z " fill="#5F5644" transform="translate(128,244)"/>
<path d="M0 0 C1.31611677 0.95336021 2.62778961 1.91285774 3.9375 2.875 C4.66839844 3.40867188 5.39929688 3.94234375 6.15234375 4.4921875 C8 6 8 6 9 8 C4.75153925 7.52794881 2.73180712 5.11122478 0 2 C0 1.34 0 0.68 0 0 Z " fill="#F6DA6D" transform="translate(102,225)"/>
<path d="M0 0 C0.33 0.66 0.66 1.32 1 2 C1.99 2.33 2.98 2.66 4 3 C3.625 4.9375 3.625 4.9375 3 7 C2.01 7.495 2.01 7.495 1 8 C0.67 5.36 0.34 2.72 0 0 Z " fill="#E1C05A" transform="translate(83,167)"/>
</svg>
